<svg fill="none" viewBox="0 0 24 24" xmlns="http://www.w3.org/2000/svg" xmlns:xlink="http://www.w3.org/1999/xlink"><linearGradient id="paint0_linear_108_797" gradientUnits="userSpaceOnUse" x1="12" x2="12" y1="4" y2="20.13"><stop offset="0" stop-color="#e2b0ff"/><stop offset="1" stop-color="#9f44d3"/></linearGradient><g clip-rule="evenodd" fill="url(#paint0_linear_108_797)" fill-rule="evenodd"><path d="m8.58604 4.71621c2.94746-1.34039 6.54346-.80006 8.97036 1.62677l3.0018 3.00179c.0301.03015.06.05996.0896.08947.407.40607.7586.75686.9712 1.15646.4688.881.4688 1.9374 0 2.8183-.2126.3996-.5642.7504-.9712 1.1564-.0296.0296-.0595.0594-.0896.0895l-.0521.0521c-.3905.3905-1.0237.3905-1.4142 0-.3905-.3906-.3905-1.0237 0-1.4142l.0521-.0521c.5483-.5484.6569-.6725.7094-.7711.1563-.2937.1563-.6458 0-.9395-.0525-.0986-.1611-.2227-.7094-.7711l-3.0018-3.0018c-1.8182-1.81818-4.515-2.22691-6.72822-1.2204-.50274.22862-1.09563.00641-1.32426-.49633s-.00642-1.09563.49632-1.32426z"/><path d="m2.38204 4.51587c.33907-.43595.96735-.51448 1.4033-.17541l17.99996 14.00004c.436.339.5145.9673.1754 1.4033-.339.4359-.9673.5145-1.4033.1754l-2.9609-2.3029-.0405.0405c-3.1241 3.1242-8.18947 3.1242-11.31366 0l-2.16786-2.1679c-.62687-.6268-1.16702-1.1669-1.54138-1.6575-.4012-.5259-.70498-1.1107-.70498-1.8315s.30378-1.3056.70498-1.8314c.37436-.49072.9145-1.03079 1.54138-1.6576l.79415-.79415-2.31117-1.79759c-.43595-.33907-.51449-.96734-.17542-1.40329zm10.37456 9.33603 1.6889 1.3136c-.6761.5231-1.5245.8344-2.4455.8344-2.20914 0-4-1.7908-4-4 0-.5656.11741-1.1038.32918-1.5916l1.68992 1.3144c-.0126.0906-.0191.1832-.0191.2772 0 1.1046.8954 2 2 2 .2678 0 .5232-.0526.7566-.148z"/></g></svg>