<svg fill="none" viewBox="0 0 24 24" xmlns="http://www.w3.org/2000/svg" xmlns:xlink="http://www.w3.org/1999/xlink"><linearGradient id="paint0_linear_35_5936" gradientUnits="userSpaceOnUse" x1="11.899" x2="11.899" y1="4" y2="20"><stop offset="0" stop-color="#e2b0ff"/><stop offset="1" stop-color="#9f44d3"/></linearGradient><g clip-rule="evenodd" fill="url(#paint0_linear_35_5936)" fill-rule="evenodd"><path d="m12 10c-1.1045 0-2 .8955-2 2 0 1.1046.8955 2 2 2 1.1046 0 2-.8954 2-2 0-1.1045-.8954-2-2-2zm-3.99998 2c0-2.2091 1.79086-3.99996 3.99998-3.99996 2.2092 0 4 1.79086 4 3.99996 0 2.2092-1.7908 4-4 4-2.20912 0-3.99998-1.7908-3.99998-4z"/><path d="m6.24258 6.34315c3.1242-3.1242 8.18952-3.1242 11.31372 0l2.1678 2.16785c.6269.62681 1.1671 1.16688 1.5414 1.6575.4012.5259.705 1.1107.705 1.8315s-.3038 1.3056-.705 1.8315c-.3743.4906-.9145 1.0307-1.5413 1.6575l-2.1679 2.1679c-3.1242 3.1241-8.18952 3.1241-11.31372 0l-2.16787-2.1679c-.62687-.6268-1.167-1.1669-1.54136-1.6575-.4012-.5259-.70498-1.1107-.70498-1.8315s.30378-1.3056.70498-1.8315c.37436-.49062.91449-1.03069 1.54137-1.65749.01546-.01546.03098-.03098.04654-.04654zm9.89952 1.41421c-2.3432-2.34315-6.14216-2.34315-8.4853 0l-2.12132 2.12132c-.68666.68662-1.12902 1.13202-1.41209 1.50302-.26546.3479-.29502.5106-.29502.6183s.02956.2704.29502.6183c.28307.371.72543.8164 1.41209 1.503l2.12132 2.1213c2.34314 2.3432 6.1421 2.3432 8.4853 0l2.1213-2.1213c.6867-.6866 1.129-1.132 1.4121-1.503.2654-.3479.295-.5106.295-.6183s-.0296-.2704-.295-.6183c-.2831-.371-.7254-.8164-1.4121-1.50302z"/></g></svg>