<!-- icon666.com - MILLIONS vector ICONS FREE --><svg id="Layer_3" viewBox="0 0 24 24" xmlns="http://www.w3.org/2000/svg" data-name="Layer 3"><path d="m23.5 6.5a5.997 5.997 0 0 0 -11-3.31v-.19a2.503 2.503 0 0 0 -2.5-2.5h-7a2.503 2.503 0 0 0 -2.5 2.5v7a2.4905 2.4905 0 0 0 1.0154 2 2.4905 2.4905 0 0 0 -1.0154 2v7a2.503 2.503 0 0 0 2.5 2.5h7a2.4905 2.4905 0 0 0 2-1.0154 2.4905 2.4905 0 0 0 2 1.0154h7a2.503 2.503 0 0 0 2.5-2.5v-7a2.503 2.503 0 0 0 -2.5-2.5h-.19a5.9972 5.9972 0 0 0 2.69-5zm-22 3.5v-7a1.5017 1.5017 0 0 1 1.5-1.5h7a1.5017 1.5017 0 0 1 1.5 1.5v7a1.5017 1.5017 0 0 1 -1.5 1.5h-7a1.5017 1.5017 0 0 1 -1.5-1.5zm10.5 2.5154a2.5127 2.5127 0 0 0 -.5154-.5154 2.4905 2.4905 0 0 0 1.0154-2v-.19a6.0438 6.0438 0 0 0 1.69 1.69h-.19a2.4905 2.4905 0 0 0 -2 1.0154zm-2 9.9846h-7a1.5017 1.5017 0 0 1 -1.5-1.5v-7a1.5017 1.5017 0 0 1 1.5-1.5h7a1.5017 1.5017 0 0 1 1.5 1.5v7a1.5017 1.5017 0 0 1 -1.5 1.5zm11-10a1.5017 1.5017 0 0 1 1.5 1.5v7a1.5017 1.5017 0 0 1 -1.5 1.5h-7a1.5017 1.5017 0 0 1 -1.5-1.5v-7a1.5017 1.5017 0 0 1 1.5-1.5zm-3.5-1a5 5 0 1 1 5-5 5.0059 5.0059 0 0 1 -5 5z" fill="#000000" style="fill: rgb(255, 255, 255);"></path></svg>