<svg width="16" height="16" viewBox="0 0 16 16" fill="none" stroke="none" version="1.1" xmlns:xlink="http://www.w3.org/1999/xlink" xmlns="http://www.w3.org/2000/svg">
    <g id="icons/icon_search">
        <rect id="frame" width="16" height="16" style="mix-blend-mode:normal;" />
        <path id="magnifier" d="M15.804 14.8637L11.9576 11.0172C12.911 9.85473 13.4856 8.36576 13.4856 6.74282C13.4856 3.02041 10.4652 0 6.74282 0C3.01722 0 0 3.02041 0 6.74282C0 10.4652 3.01722 13.4856 6.74282 13.4856C8.36576 13.4856 9.85139 12.9142 11.0139 11.9608L14.8603 15.804C15.1216 16.0654 15.5429 16.0654 15.804 15.804C16.0654 15.5461 16.0654 15.1216 15.804 14.8637ZM6.74282 12.1437C3.76163 12.1437 1.33882 9.72082 1.33882 6.74282C1.33882 3.76482 3.76163 1.33882 6.74282 1.33882C9.72082 1.33882 12.147 3.76482 12.147 6.74282C12.147 9.72082 9.72082 12.1437 6.74282 12.1437Z" style="fill:#2B3034;fill-rule:evenodd;fill-opacity:0.4;mix-blend-mode:normal;" />
    </g>
</svg>